<svg width="1198.7" height="167.04" version="1.1" viewBox="0 0 317.16 44.196" xmlns="http://www.w3.org/2000/svg">
 <g stroke-width=".26458" aria-label="Commupace">
  <path d="m28.448 35.052q-11.328 1.016-18.796 1.016-4.9784 0-7.3152-2.3368t-2.3368-7.3152v-16.256q0-5.334 2.3876-7.7216 2.4384-2.4384 7.7724-2.4384h18.288v7.112h-16.256q-3.048 0-3.048 3.048v16.256q0 1.1684 0.6604 1.8796 0.7112 0.6604 1.778 0.6604t2.3368 0q1.27-0.0508 2.6416-0.1016t2.7432-0.1016q1.4224-0.0508 3.6068-0.2032 2.2352-0.1524 5.5372-0.3556z"/>
  <path d="m60.759 27.94q0 3.81-2.1844 5.9944-2.1336 2.1336-5.9436 2.1336h-11.684q-3.81 0-5.9944-2.1336-2.1336-2.1844-2.1336-5.9944v-11.684q0-3.81 2.1336-5.9436 2.1844-2.1844 5.9944-2.1844h11.684q3.81 0 5.9436 2.1844 2.1844 2.1336 2.1844 5.9436zm-8.89-10.922q0-2.032-2.032-2.032h-6.096q-2.032 0-2.032 2.032v10.16q0 2.032 2.032 2.032h6.096q2.032 0 2.032-2.032z"/>
  <path d="m84.688 8.128q4.1148 0 6.35 3.048 2.3368-1.5748 5.0292-2.286 2.7432-0.762 4.8768-0.762h0.508q3.4544 0 5.5372 2.0828t2.0828 5.5372v19.812h-8.89v-18.288q0-0.762-0.508-1.27t-1.27-0.508h-0.254q-2.286 0-5.842 1.016v19.05h-8.89v-18.288q0-0.762-0.508-1.27t-1.27-0.508h-0.254q-2.286 0-5.842 1.016v19.05h-8.89v-26.924h7.874l0.508 2.54q2.3876-1.5748 4.8768-2.286 2.54-0.762 4.2672-0.762z"/>
  <path d="m133 8.128q4.1148 0 6.35 3.048 2.3368-1.5748 5.0292-2.286 2.7432-0.762 4.8768-0.762h0.508q3.4544 0 5.5372 2.0828t2.0828 5.5372v19.812h-8.89v-18.288q0-0.762-0.508-1.27t-1.27-0.508h-0.254q-2.286 0-5.842 1.016v19.05h-8.89v-18.288q0-0.762-0.508-1.27t-1.27-0.508h-0.254q-2.286 0-5.842 1.016v19.05h-8.89v-26.924h7.874l0.508 2.54q2.3876-1.5748 4.8768-2.286 2.54-0.762 4.2672-0.762z"/>
  <path d="m175.72 28.702q2.6924 0 6.096-1.016v-19.05h8.89v26.924h-7.874l-0.508-2.54q-2.3876 1.5748-4.9276 2.3368-2.4892 0.7112-4.2164 0.7112h-2.286q-3.4544 0-5.5372-2.0828t-2.0828-5.5372v-19.812h8.89v18.288q0 0.762 0.508 1.27t1.27 0.508z"/>
  <path d="m212.1 15.494q-2.6924 0-6.096 1.016v12.192h7.62q2.032 0 2.032-2.032v-9.398q0-0.762-0.508-1.27t-1.27-0.508zm-6.096 20.066v8.636h-8.89v-35.56h7.874l0.508 2.54q2.3876-1.5748 4.8768-2.286 2.54-0.762 4.2672-0.762h2.286q3.4544 0 5.5372 2.0828t2.0828 5.5372v11.684q0 3.81-2.1844 5.9944-2.1336 2.1336-5.9436 2.1336z"/>
  <path d="m241.11 28.956q2.6924 0 6.096-1.016v-3.048h-7.366q-0.762 0-1.27 0.508t-0.508 1.27v0.508q0 0.762 0.508 1.27t1.27 0.508zm-9.398-19.812q9.2964-1.016 16.764-1.016 3.4544 0 5.5372 2.0828t2.0828 5.5372v19.812h-7.874l-0.508-2.54q-2.3876 1.5748-4.9276 2.3368-2.4892 0.7112-4.2164 0.7112h-1.778q-3.4544 0-5.5372-2.0828t-2.0828-5.5372v-2.286q0-3.4544 2.0828-5.5372t5.5372-2.0828h10.414v-2.032q0-0.762-0.508-1.27t-1.27-0.508q-3.302 0-7.3152 0.3048-3.9624 0.3048-6.4008 0.4572z"/>
  <path d="m285.87 35.052q-9.4996 1.016-16.764 1.016-3.4544 0-5.5372-2.0828t-2.0828-5.5372v-11.684q0-3.81 2.1336-5.9436 2.1844-2.1844 5.9944-2.1844h16.256v6.858h-13.462q-2.032 0-2.032 2.032v9.906q0 0.762 0.508 1.27t1.27 0.508q4.572 0 13.716-0.762z"/>
  <path d="m301.67 14.478q-2.032 0-2.032 2.032v2.794h8.636v-2.794q0-2.032-2.032-2.032zm14.478 20.574q-9.8044 1.016-17.78 1.016-3.4544 0-5.5372-2.0828t-2.0828-5.5372v-12.192q0-3.81 2.1336-5.9436 2.1844-2.1844 5.9944-2.1844h10.16q3.81 0 5.9436 2.1844 2.1844 2.1336 2.1844 5.9436v9.398h-17.526v2.032q0 0.762 0.508 1.27t1.27 0.508q5.0292 0 14.732-0.762z"/>
 </g>
</svg>
